<svg xmlns="http://www.w3.org/2000/svg" width="20" height="20" viewBox="0 0 20 20">
    <g fill="none" fill-rule="evenodd">
        <path d="M-3-2h24v24H-3z"/>
        <path fill="#FFF" d="M13.52 8V1.8H5v4.255H1.803V16.2H7V18H.901A.9.9 0 0 1 0 17.1V5.7a.9.9 0 0 1 .18-.54L3.785.36A.902.902 0 0 1 4.507 0h9.914a.9.9 0 0 1 .901.9V8H13.52zM11 10h2a1 1 0 0 1 1 1v2a1 1 0 0 1-1 1h-2a1 1 0 0 1-1-1v-2a1 1 0 0 1 1-1zm6 0h2a1 1 0 0 1 1 1v2a1 1 0 0 1-1 1h-2a1 1 0 0 1-1-1v-2a1 1 0 0 1 1-1zm0 6h2a1 1 0 0 1 1 1v2a1 1 0 0 1-1 1h-2a1 1 0 0 1-1-1v-2a1 1 0 0 1 1-1zm-6 0h2a1 1 0 0 1 1 1v2a1 1 0 0 1-1 1h-2a1 1 0 0 1-1-1v-2a1 1 0 0 1 1-1z" opacity=".7"/>
    </g>
</svg>
