<svg xmlns="http://www.w3.org/2000/svg" width="20" height="22" viewBox="0 0 20 22">
    <g fill="none" fill-rule="evenodd">
        <path d="M-2-1h24v24H-2z"/>
        <path fill="#FFF" d="M10.82.22l8.1 4.677c.51.294.824.838.824 1.427v9.352c0 .589-.314 1.133-.824 1.427l-8.1 4.676a1.648 1.648 0 0 1-1.647 0l-8.1-4.676a1.648 1.648 0 0 1-.823-1.427V6.324c0-.589.314-1.133.824-1.427L9.174.22a1.648 1.648 0 0 1 1.647 0zM8.489 3.249a4.146 4.146 0 0 0-4.146 4.146v7.167a3.769 3.769 0 0 0 3.769 3.769h3.772a3.769 3.769 0 0 0 3.769-3.769V7.394a4.146 4.146 0 0 0-4.146-4.146H8.488zm-.377 1.879h3.772a1.89 1.89 0 1 1 0 3.78H8.111a1.89 1.89 0 0 1 0-3.78zm4.527 9.43c.4 0 .786-.09 1.135-.256v.26a1.89 1.89 0 0 1-1.89 1.89H8.111a1.89 1.89 0 0 1-1.89-1.89v-.26c.35.167.736.256 1.135.256h5.282zm0-3.772c.407 0 .797-.109 1.135-.306v1.064c0 .627-.508 1.136-1.135 1.136H7.356a1.135 1.135 0 0 1-1.135-1.136V10.48c.338.197.728.306 1.135.306h5.282z" opacity=".7"/>
    </g>
</svg>
