<svg xmlns="http://www.w3.org/2000/svg" width="16" height="15" viewBox="0 0 16 15">
    <path fill="#FFF" fill-rule="evenodd" d="M13.987 8.655l1.372.618c.111.04.199.108.264.204a.537.537 0 0 1 .098.309v3.242c0 .121-.032.227-.098.317a.649.649 0 0 1-.264.211l-2.458 1.086a.854.854 0 0 1-.271.045.724.724 0 0 1-.257-.045l-1.734-.754-1.945.86c-.221.09-.453.135-.694.135-.241 0-.473-.045-.694-.135l-1.945-.86-1.734.754a.724.724 0 0 1-.257.045.854.854 0 0 1-.271-.045L.64 13.556a.649.649 0 0 1-.264-.21.527.527 0 0 1-.098-.318V9.786c0-.11.032-.214.098-.31a.532.532 0 0 1 .264-.203l1.372-.618V5.654c0-.312.088-.6.264-.867.176-.267.41-.46.701-.58l1.93-.86V2.065c0-.11.033-.214.098-.31a.532.532 0 0 1 .264-.203L7.744.466a.566.566 0 0 1 .512 0l2.474 1.086c.11.04.198.108.264.203a.537.537 0 0 1 .098.31v1.282l1.93.86c.291.12.525.313.701.58.176.266.264.555.264.867v3zm-1.161-.498V5.654a.382.382 0 0 0-.076-.226.525.525 0 0 0-.196-.166l-1.462-.649v.694c0 .12-.033.226-.098.317a.649.649 0 0 1-.264.21L8.256 6.922A.724.724 0 0 1 8 6.966a.724.724 0 0 1-.256-.045L5.27 5.835a.649.649 0 0 1-.264-.211.527.527 0 0 1-.098-.317v-.694l-1.462.649a.525.525 0 0 0-.196.166.382.382 0 0 0-.076.226v2.503a.667.667 0 0 1 .226-.022c.08.005.156.022.227.052L6.1 9.273c.11.04.198.108.264.204a.537.537 0 0 1 .098.309v3.242c0 .01-.003.023-.008.038a.124.124 0 0 0-.007.038l1.327.573c.07.03.146.045.226.045.08 0 .156-.015.226-.045l1.327-.573a.124.124 0 0 0-.007-.038.124.124 0 0 1-.008-.038V9.786c0-.11.033-.214.098-.31a.532.532 0 0 1 .264-.203l2.473-1.086a.677.677 0 0 1 .227-.052.667.667 0 0 1 .226.022zm-1.976 1.976l1.629.814a.303.303 0 0 0 .317 0l1.628-.814-1.794-.784-1.78.784zm-9.274 0l1.628.814a.303.303 0 0 0 .317 0l1.629-.814-1.78-.784-1.794.784zm4.63-7.721l1.643.814c.05.03.1.045.151.045.05 0 .1-.015.15-.045l1.645-.814L8 1.627l-1.795.785z" opacity=".7"/>
</svg>
