<svg xmlns="http://www.w3.org/2000/svg" width="18" height="18" viewBox="0 0 18 18">
    <path fill="#FFF" fill-rule="evenodd" d="M9 .68c1.52 0 2.927.38 4.22 1.14a7.886 7.886 0 0 1 2.96 2.96A8.182 8.182 0 0 1 17.32 9c0 1.52-.38 2.927-1.14 4.22a7.886 7.886 0 0 1-2.96 2.96A8.182 8.182 0 0 1 9 17.32c-1.52 0-2.927-.38-4.22-1.14a8.035 8.035 0 0 1-2.96-2.98A8.146 8.146 0 0 1 .68 9c0-1.507.38-2.907 1.14-4.2A8.188 8.188 0 0 1 4.8 1.82 8.146 8.146 0 0 1 9 .68zM5.26 9.695a.751.751 0 0 0-.752.751V12.7c0 .415.336.751.751.751h2.254a.751.751 0 0 0 .751-.751v-2.254a.751.751 0 0 0-.751-.751H5.259zm0-5.187a.751.751 0 0 0-.752.751v2.254c0 .415.336.751.751.751h2.254a.751.751 0 0 0 .751-.751V5.259a.751.751 0 0 0-.751-.751H5.259zm5.186 0a.751.751 0 0 0-.751.751v2.254c0 .415.336.751.751.751H12.7a.751.751 0 0 0 .751-.751V5.259a.751.751 0 0 0-.751-.751h-2.254zm0 5.187a.751.751 0 0 0-.751.751V12.7c0 .415.336.751.751.751H12.7a.751.751 0 0 0 .751-.751v-2.254a.751.751 0 0 0-.751-.751h-2.254z" opacity=".7"/>
</svg>
