<svg xmlns="http://www.w3.org/2000/svg" width="22" height="22" viewBox="0 0 22 22">
    <path fill="#BBC2C8" fill-rule="evenodd" d="M9.332 12.103L3.986 13.24a2 2 0 1 1-.315-1.34l5.343-1.135c.039-.336.162-.648.347-.912L5.691 5.48a3 3 0 1 1 .935-1.025l3.868 4.61a2.003 2.003 0 0 1 1.212.064l2.96-2.573a3.5 3.5 0 1 1 1.017.938l-2.929 2.546a1.992 1.992 0 0 1 .06 1.803l4.607 4.607a3 3 0 1 1-.972.972l-4.607-4.606c-.173.08-.36.137-.556.165L9.93 16.703a3 3 0 1 1-1.237-.623l1.235-3.391a2.01 2.01 0 0 1-.596-.586z"/>
</svg>
