<svg xmlns="http://www.w3.org/2000/svg" width="20" height="20" viewBox="0 0 20 20">
    <g fill="none" fill-rule="evenodd">
        <path d="M-2-2h24v24H-2z"/>
        <path fill="#FFF" fill-rule="nonzero" d="M6.858 12.954H.446A9.958 9.958 0 0 1 0 10c0-2.069.631-3.992 1.711-5.588l5.147 8.542zM9.02 5.76l3.233-5.5c3.015.697 5.511 2.76 6.8 5.5H9.02zM5.8 8.856L2.506 3.39a9.974 9.974 0 0 1 8.47-3.341L5.8 8.856zm2.085 10.829l.236.135a10.033 10.033 0 0 1-7.21-5.658h10.14l-3.166 5.523zm5.24-12.717h6.404C19.834 7.925 20 8.943 20 10a9.935 9.935 0 0 1-1.82 5.74l-5.054-8.772zm1.031 4.21l3.212 5.574a9.975 9.975 0 0 1-8.247 3.207l5.035-8.782z" opacity=".7"/>
    </g>
</svg>
