<svg xmlns="http://www.w3.org/2000/svg" width="24" height="24" viewBox="0 0 24 24">
    <path fill="#FFF" fill-rule="evenodd" d="M2 0h20a2 2 0 0 1 2 2v20a2 2 0 0 1-2 2H2a2 2 0 0 1-2-2V2a2 2 0 0 1 2-2zm10 3.68c-1.507 0-2.907.38-4.2 1.14A8.188 8.188 0 0 0 4.82 7.8 8.146 8.146 0 0 0 3.68 12c0 1.507.38 2.907 1.14 4.2a8.035 8.035 0 0 0 2.96 2.98c1.293.76 2.7 1.14 4.22 1.14 1.52 0 2.927-.38 4.22-1.14a7.886 7.886 0 0 0 2.96-2.96A8.182 8.182 0 0 0 20.32 12c0-1.52-.38-2.927-1.14-4.22a7.886 7.886 0 0 0-2.96-2.96A8.182 8.182 0 0 0 12 3.68zM16.18 15L15 16.18l-3-3-3 3L7.82 15l3-3-3-3L9 7.82l3 3 3-3L16.18 9l-3 3 3 3z" opacity=".7"/>
</svg>
