<svg xmlns="http://www.w3.org/2000/svg" xmlns:xlink="http://www.w3.org/1999/xlink" width="72" height="82" viewBox="0 0 72 82">
    <defs>
        <path id="b" d="M37.5.67l30 17.32a5 5 0 0 1 2.5 4.33v34.642a5 5 0 0 1-2.5 4.33l-30 17.32a5 5 0 0 1-5 0l-30-17.32a5 5 0 0 1-2.5-4.33V22.32a5 5 0 0 1 2.5-4.33L32.5.67a5 5 0 0 1 5 0z"/>
        <filter id="a" width="105.7%" height="105%" x="-2.9%" y="-1.3%" filterUnits="objectBoundingBox">
            <feOffset dy="1" in="SourceAlpha" result="shadowOffsetOuter1"/>
            <feGaussianBlur in="shadowOffsetOuter1" result="shadowBlurOuter1" stdDeviation=".5"/>
            <feColorMatrix in="shadowBlurOuter1" values="0 0 0 0 0 0 0 0 0 0 0 0 0 0 0 0 0 0 0.5 0"/>
        </filter>
    </defs>
    <g fill="none" fill-rule="evenodd">
        <g transform="translate(1)">
            <use fill="#000" filter="url(#a)" xlink:href="#b"/>
            <use fill="#5A7BA3" xlink:href="#b"/>
        </g>
        <path fill="#39506C" d="M38.5 6.93l24.578 14.19a5 5 0 0 1 2.5 4.33v28.381a5 5 0 0 1-2.5 4.33L38.5 72.351a5 5 0 0 1-5 0L8.922 58.161a5 5 0 0 1-2.5-4.33v-28.38a5 5 0 0 1 2.5-4.33L33.5 6.93a5 5 0 0 1 5 0z"/>
        <path fill="#5A7BA3" d="M32 20h8c5.523 0 10 4.477 10 10v19a9 9 0 0 1-9 9H31a9 9 0 0 1-9-9V30c0-5.523 4.477-10 10-10zm-1 3a6 6 0 1 0 0 12h10a6 6 0 1 0 0-12H31zm16 23.472A5.978 5.978 0 0 1 43 48H29a5.978 5.978 0 0 1-4-1.528V49a6 6 0 0 0 6 6h10a6 6 0 0 0 6-6v-2.528zm-.096-10.348A4.99 4.99 0 0 1 43 38H29a4.99 4.99 0 0 1-3.904-1.876A4.014 4.014 0 0 0 25 37v4a4 4 0 0 0 4 4h14a4 4 0 0 0 4-4v-4c0-.3-.033-.594-.096-.876z"/>
    </g>
</svg>
