<svg xmlns="http://www.w3.org/2000/svg" xmlns:xlink="http://www.w3.org/1999/xlink" width="72" height="82" viewBox="0 0 72 82">
    <defs>
        <path id="b" d="M37.5.67l30 17.32a5 5 0 0 1 2.5 4.33v34.642a5 5 0 0 1-2.5 4.33l-30 17.32a5 5 0 0 1-5 0l-30-17.32a5 5 0 0 1-2.5-4.33V22.32a5 5 0 0 1 2.5-4.33L32.5.67a5 5 0 0 1 5 0z"/>
        <filter id="a" width="105.7%" height="105%" x="-2.9%" y="-1.3%" filterUnits="objectBoundingBox">
            <feOffset dy="1" in="SourceAlpha" result="shadowOffsetOuter1"/>
            <feGaussianBlur in="shadowOffsetOuter1" result="shadowBlurOuter1" stdDeviation=".5"/>
            <feColorMatrix in="shadowBlurOuter1" values="0 0 0 0 0 0 0 0 0 0 0 0 0 0 0 0 0 0 0.5 0"/>
        </filter>
    </defs>
    <g fill="none" fill-rule="evenodd">
        <g transform="translate(1)">
            <use fill="#000" filter="url(#a)" xlink:href="#b"/>
            <use fill="#5A7BA3" xlink:href="#b"/>
        </g>
        <path fill="#39506C" d="M38.5 6.93l24.578 14.19a5 5 0 0 1 2.5 4.33v28.381a5 5 0 0 1-2.5 4.33L38.5 72.351a5 5 0 0 1-5 0L8.922 58.161a5 5 0 0 1-2.5-4.33v-28.38a5 5 0 0 1 2.5-4.33L33.5 6.93a5 5 0 0 1 5 0z"/>
        <path fill="#5A7BA3" fill-rule="nonzero" d="M42.972 41.022c1.512 0 3.192.224 5.04.672 2.044.532 3.71 1.218 4.998 2.058 1.512 1.008 2.268 2.142 2.268 3.402v4.368h-10.5v-4.368c0-2.38-1.148-4.396-3.444-6.048.392-.056.938-.084 1.638-.084zm-13.944 0c1.512 0 3.178.224 4.998.672 2.044.532 3.696 1.218 4.956 2.058 1.512 1.008 2.268 2.142 2.268 3.402v4.368H16.722v-4.368c0-1.26.756-2.394 2.268-3.402 1.288-.84 2.954-1.526 4.998-2.058 1.848-.448 3.528-.672 5.04-.672zm0-3.444a5.065 5.065 0 0 1-2.604-.714 5.326 5.326 0 0 1-1.932-1.932 5.065 5.065 0 0 1-.714-2.604c0-.924.238-1.792.714-2.604a5.326 5.326 0 0 1 1.932-1.932 5.065 5.065 0 0 1 2.604-.714c.924 0 1.785.238 2.583.714a5.262 5.262 0 0 1 1.89 1.911c.462.798.693 1.673.693 2.625s-.231 1.827-.693 2.625a5.262 5.262 0 0 1-1.89 1.911 4.954 4.954 0 0 1-2.583.714zm13.944 0a5.065 5.065 0 0 1-2.604-.714 5.326 5.326 0 0 1-1.932-1.932 5.065 5.065 0 0 1-.714-2.604c0-.924.238-1.792.714-2.604a5.326 5.326 0 0 1 1.932-1.932 5.065 5.065 0 0 1 2.604-.714c.924 0 1.792.238 2.604.714a5.326 5.326 0 0 1 1.932 1.932c.476.812.714 1.68.714 2.604 0 .924-.238 1.792-.714 2.604a5.326 5.326 0 0 1-1.932 1.932 5.065 5.065 0 0 1-2.604.714z"/>
    </g>
</svg>
