<svg xmlns="http://www.w3.org/2000/svg" xmlns:xlink="http://www.w3.org/1999/xlink" width="72" height="82" viewBox="0 0 72 82">
    <defs>
        <path id="b" d="M37.5.67l30 17.32a5 5 0 0 1 2.5 4.33v34.642a5 5 0 0 1-2.5 4.33l-30 17.32a5 5 0 0 1-5 0l-30-17.32a5 5 0 0 1-2.5-4.33V22.32a5 5 0 0 1 2.5-4.33L32.5.67a5 5 0 0 1 5 0z"/>
        <filter id="a" width="105.7%" height="105%" x="-2.9%" y="-1.3%" filterUnits="objectBoundingBox">
            <feOffset dy="1" in="SourceAlpha" result="shadowOffsetOuter1"/>
            <feGaussianBlur in="shadowOffsetOuter1" result="shadowBlurOuter1" stdDeviation=".5"/>
            <feColorMatrix in="shadowBlurOuter1" values="0 0 0 0 0 0 0 0 0 0 0 0 0 0 0 0 0 0 0.5 0"/>
        </filter>
    </defs>
    <g fill="none" fill-rule="evenodd">
        <g transform="translate(1)">
            <use fill="#000" filter="url(#a)" xlink:href="#b"/>
            <use fill="#5A7BA3" xlink:href="#b"/>
        </g>
        <path fill="#39506C" d="M38.5 6.93l24.578 14.19a5 5 0 0 1 2.5 4.33v28.381a5 5 0 0 1-2.5 4.33L38.5 72.351a5 5 0 0 1-5 0L8.922 58.161a5 5 0 0 1-2.5-4.33v-28.38a5 5 0 0 1 2.5-4.33L33.5 6.93a5 5 0 0 1 5 0z"/>
        <path fill="#5A7BA3" fill-rule="nonzero" d="M43.383 45.594l4.219 2.11a.785.785 0 0 0 .82 0l4.219-2.11-4.649-2.032-4.61 2.032zm8.125-3.828l3.554 1.601c.287.104.515.28.684.528.17.247.254.514.254.8v8.399c0 .312-.085.586-.254.82-.17.234-.397.417-.684.547l-6.367 2.812a2.212 2.212 0 0 1-.703.118c-.234 0-.456-.04-.664-.118l-4.492-1.953-5.04 2.227a4.7 4.7 0 0 1-1.796.351 4.7 4.7 0 0 1-1.797-.351l-5.039-2.227-4.492 1.953c-.208.079-.43.118-.664.118-.235 0-.469-.04-.703-.118l-6.367-2.812a1.681 1.681 0 0 1-.684-.547 1.364 1.364 0 0 1-.254-.82v-8.399c0-.286.085-.553.254-.8.17-.248.397-.424.683-.528l3.555-1.601v-7.774c0-.807.228-1.556.684-2.246a3.937 3.937 0 0 1 1.816-1.504l5-2.226v-3.32c0-.287.085-.554.254-.801.17-.248.397-.424.684-.528l6.406-2.812c.208-.104.43-.157.664-.157.234 0 .456.053.664.157l6.406 2.812c.287.104.515.28.684.528.17.247.254.514.254.8v3.32l5 2.227c.755.313 1.36.814 1.816 1.504.456.69.684 1.439.684 2.246v7.774zm-3.008-1.29v-6.484a.99.99 0 0 0-.195-.586 1.36 1.36 0 0 0-.508-.43l-3.79-1.68v1.798c0 .312-.084.586-.253.82-.17.234-.397.417-.684.547l-6.406 2.812c-.208.079-.43.118-.664.118-.234 0-.456-.04-.664-.118l-6.406-2.812a1.681 1.681 0 0 1-.684-.547 1.364 1.364 0 0 1-.254-.82v-1.797l-3.789 1.68a1.36 1.36 0 0 0-.508.43.99.99 0 0 0-.195.585v6.485c.182-.053.378-.072.586-.059.208.013.404.059.586.137l6.406 2.812c.287.104.514.28.684.528.169.247.254.514.254.8v8.399a.321.321 0 0 1-.02.097.321.321 0 0 0-.02.098l3.438 1.484c.182.079.378.118.586.118.208 0 .404-.04.586-.118l3.437-1.484a.321.321 0 0 0-.02-.098.321.321 0 0 1-.019-.097v-8.399c0-.286.085-.553.254-.8.17-.248.397-.424.684-.528l6.406-2.812c.182-.078.378-.124.586-.137.208-.013.404.006.586.059zm-29.14 5.118l4.218 2.11a.785.785 0 0 0 .82 0l4.22-2.11-4.61-2.032-4.649 2.032zm11.992-20l4.257 2.11c.13.077.26.116.391.116.13 0 .26-.039.39-.117l4.258-2.11L36 23.564l-4.648 2.03z"/>
    </g>
</svg>
