<svg xmlns="http://www.w3.org/2000/svg" width="18" height="13" viewBox="0 0 18 13">
    <path fill="#FFF" fill-rule="evenodd" d="M14.526 5.336a3.669 3.669 0 0 1 1.746.585c.528.342.948.789 1.26 1.341.312.552.468 1.152.468 1.8 0 .684-.168 1.314-.504 1.89a3.74 3.74 0 0 1-1.368 1.368 3.684 3.684 0 0 1-1.89.504H4.5a4.408 4.408 0 0 1-2.259-.603 4.468 4.468 0 0 1-1.638-1.638A4.408 4.408 0 0 1 0 8.324c0-.756.177-1.461.531-2.115A4.48 4.48 0 0 1 1.98 4.607a4.472 4.472 0 0 1 2.034-.747 5.648 5.648 0 0 1 2.034-2.214A5.452 5.452 0 0 1 9 .8c.9 0 1.74.198 2.52.594a5.539 5.539 0 0 1 1.944 1.611c.528.69.882 1.467 1.062 2.331z" opacity=".7"/>
</svg>
