<svg xmlns="http://www.w3.org/2000/svg" width="24" height="24" viewBox="0 0 24 24">
    <path fill="#FFF" fill-rule="evenodd" d="M2 0h20a2 2 0 0 1 2 2v20a2 2 0 0 1-2 2H2a2 2 0 0 1-2-2V2a2 2 0 0 1 2-2zm5 17.82c0 .453.167.847.5 1.18.333.333.727.5 1.18.5h6.64c.453 0 .847-.167 1.18-.5.333-.333.5-.727.5-1.18v-10H7v10zm7.94-12.5l-.86-.82H9.94l-.86.82h-2.9V7h11.64V5.32h-2.88zm-5.9 6.56l1.2-1.18L12 12.5l1.76-1.8 1.18 1.18-1.76 1.8 1.76 1.76-1.18 1.16L12 14.86l-1.76 1.74-1.16-1.16 1.74-1.76-1.78-1.8z" opacity=".1"/>
</svg>
