<svg xmlns="http://www.w3.org/2000/svg" width="24" height="24" viewBox="0 0 24 24">
    <path fill="#C3B749" fill-rule="evenodd" d="M2 0h20a2 2 0 0 1 2 2v20a2 2 0 0 1-2 2H2a2 2 0 0 1-2-2V2a2 2 0 0 1 2-2zm15.987 12.655V9.654c0-.312-.088-.6-.264-.867a1.52 1.52 0 0 0-.701-.58l-1.93-.86V6.065a.537.537 0 0 0-.098-.31.532.532 0 0 0-.264-.203l-2.474-1.086a.566.566 0 0 0-.512 0L9.27 5.552a.532.532 0 0 0-.264.203.537.537 0 0 0-.098.31v1.282l-1.93.86a1.52 1.52 0 0 0-.701.58 1.543 1.543 0 0 0-.264.867v3l-1.372.62a.532.532 0 0 0-.264.203.537.537 0 0 0-.098.309v3.242c0 .121.032.227.098.317.065.09.153.16.264.211l2.458 1.086c.09.03.18.045.271.045.09 0 .176-.015.257-.045l1.734-.754 1.945.86c.221.09.453.135.694.135.241 0 .473-.045.694-.135l1.945-.86 1.734.754c.08.03.166.045.257.045.09 0 .18-.015.271-.045l2.458-1.086c.111-.05.199-.12.264-.21a.527.527 0 0 0 .098-.318v-3.242a.537.537 0 0 0-.098-.31.532.532 0 0 0-.264-.203l-1.372-.618zm-1.161-.498a.667.667 0 0 0-.226-.022.677.677 0 0 0-.227.052L13.9 13.273a.532.532 0 0 0-.264.204.537.537 0 0 0-.098.309v3.242c0 .01.003.023.008.038a.124.124 0 0 1 .007.038l-1.327.573a.568.568 0 0 1-.226.045.568.568 0 0 1-.226-.045l-1.327-.573c0-.01.002-.023.007-.038a.124.124 0 0 0 .008-.038v-3.242a.537.537 0 0 0-.098-.31.532.532 0 0 0-.264-.203l-2.473-1.086a.677.677 0 0 0-.227-.052.667.667 0 0 0-.226.022V9.654c0-.08.025-.156.076-.226a.525.525 0 0 1 .196-.166l1.462-.649v.694c0 .12.033.226.098.317.066.09.154.16.264.21l2.474 1.087c.08.03.166.045.256.045s.176-.015.256-.045l2.474-1.086c.11-.05.198-.12.264-.211a.527.527 0 0 0 .098-.317v-.694l1.462.649c.08.04.146.095.196.166.05.07.076.145.076.226v2.503zm-1.976 1.976l1.78-.784 1.794.784-1.628.814a.303.303 0 0 1-.317 0l-1.629-.814zm-9.274 0l1.794-.784 1.78.784-1.629.814a.303.303 0 0 1-.317 0l-1.628-.814zm4.63-7.721L12 5.627l1.795.785-1.644.814c-.05.03-.1.045-.151.045-.05 0-.1-.015-.15-.045l-1.645-.814z"/>
</svg>
