<svg xmlns="http://www.w3.org/2000/svg" width="24" height="24" viewBox="0 0 24 24">
    <path fill="#FFF" fill-rule="evenodd" d="M2 0h20a2 2 0 0 1 2 2v20a2 2 0 0 1-2 2H2a2 2 0 0 1-2-2V2a2 2 0 0 1 2-2zm3.206 17.203c.085.127.203.21.356.248a.504.504 0 0 0 .418-.07l2.489-1.524a.568.568 0 0 0 .26-.355.538.538 0 0 0-.07-.432 4.32 4.32 0 0 1-.45-1.022 3.916 3.916 0 0 1-.16-1.11c0-.56.11-1.088.33-1.587.212-.491.502-.92.87-1.289a4.097 4.097 0 0 1 1.29-.87c.498-.22 1.027-.33 1.586-.33.559 0 1.088.11 1.587.33a4.097 4.097 0 0 1 2.158 2.158c.22.5.33 1.029.33 1.588 0 .38-.053.75-.158 1.11-.106.36-.257.7-.451 1.022a.538.538 0 0 0-.07.432c.038.152.125.27.26.355l2.489 1.524a.504.504 0 0 0 .418.07.581.581 0 0 0 .356-.248 9.21 9.21 0 0 0 .52-.99c.153-.339.28-.688.381-1.047.102-.36.178-.726.229-1.099.05-.372.076-.749.076-1.13a7.9 7.9 0 0 0-.635-3.16 8.308 8.308 0 0 0-1.745-2.584 8.308 8.308 0 0 0-2.584-1.746 7.9 7.9 0 0 0-3.161-.635 7.9 7.9 0 0 0-3.161.635A8.308 8.308 0 0 0 6.38 7.193a8.308 8.308 0 0 0-1.745 2.583A7.9 7.9 0 0 0 4 12.938c0 .38.025.757.076 1.13.051.372.127.738.229 1.098.101.36.228.708.38 1.047.153.338.326.669.521.99zM15.4 10.741L10.73 13.37l1.269 1.51 3.402-4.138zm2.654-1.51c.338.541.6 1.125.787 1.751.186.627.28 1.278.28 1.956a6.83 6.83 0 0 1-.198 1.637 7.352 7.352 0 0 1-.565 1.536l-1.523-.94c.16-.346.283-.708.368-1.085a5.224 5.224 0 0 0-.101-2.666 5.2 5.2 0 0 0-.635-1.339c.254-.152.525-.303.812-.45l.775-.4z" opacity=".7"/>
</svg>
