<svg xmlns="http://www.w3.org/2000/svg" width="24" height="24" viewBox="0 0 24 24">
    <path fill="#FFF" fill-rule="evenodd" d="M2 0h20a2 2 0 0 1 2 2v20a2 2 0 0 1-2 2H2a2 2 0 0 1-2-2V2a2 2 0 0 1 2-2zm10 14.628a2.5 2.5 0 0 1-1.305-.36 2.741 2.741 0 0 1-.963-.963A2.5 2.5 0 0 1 9.372 12c0-.468.12-.906.36-1.314.24-.408.561-.732.963-.972A2.5 2.5 0 0 1 12 9.354c.468 0 .906.12 1.314.36.408.24.732.564.972.972.24.408.36.846.36 1.314a2.5 2.5 0 0 1-.36 1.305c-.24.402-.564.723-.972.963-.408.24-.846.36-1.314.36zm5.598-1.89c.024-.168.036-.414.036-.738s-.012-.57-.036-.738l1.566-1.224a.35.35 0 0 0 .126-.234.424.424 0 0 0-.054-.27l-1.512-2.592a.329.329 0 0 0-.189-.162.399.399 0 0 0-.261.018l-1.854.738a4.674 4.674 0 0 0-1.278-.738l-.27-1.962a.457.457 0 0 0-.135-.234.325.325 0 0 0-.225-.09h-3.024a.325.325 0 0 0-.225.09.366.366 0 0 0-.117.234l-.288 1.962a5.81 5.81 0 0 0-1.26.738l-1.872-.738c-.192-.084-.342-.036-.45.144L4.764 9.534a.424.424 0 0 0-.054.27.35.35 0 0 0 .126.234l1.584 1.224a5.628 5.628 0 0 0-.036.738c0 .324.012.57.036.738l-1.584 1.224a.35.35 0 0 0-.126.234.424.424 0 0 0 .054.27l1.512 2.592c.108.18.258.228.45.144l1.872-.738c.336.288.756.534 1.26.738l.288 1.962a.366.366 0 0 0 .117.234c.066.06.141.09.225.09h3.024c.084 0 .159-.03.225-.09a.457.457 0 0 0 .135-.234l.27-1.962c.372-.144.798-.39 1.278-.738l1.854.738a.399.399 0 0 0 .261.018.329.329 0 0 0 .189-.162l1.512-2.592a.424.424 0 0 0 .054-.27.35.35 0 0 0-.126-.234l-1.566-1.224z" opacity=".7"/>
</svg>
