<svg xmlns="http://www.w3.org/2000/svg" width="24" height="24" viewBox="0 0 24 24">
    <path fill="#FFF" fill-rule="evenodd" d="M2 0h20a2 2 0 0 1 2 2v20a2 2 0 0 1-2 2H2a2 2 0 0 1-2-2V2a2 2 0 0 1 2-2zm15.526 10.336a5.698 5.698 0 0 0-1.062-2.331 5.539 5.539 0 0 0-1.944-1.611A5.488 5.488 0 0 0 12 5.8a5.452 5.452 0 0 0-2.952.846A5.648 5.648 0 0 0 7.014 8.86a4.472 4.472 0 0 0-2.034.747 4.48 4.48 0 0 0-1.449 1.602A4.374 4.374 0 0 0 3 13.324c0 .816.201 1.569.603 2.259.402.69.948 1.236 1.638 1.638.69.402 1.443.603 2.259.603h9.738c.684 0 1.314-.168 1.89-.504a3.74 3.74 0 0 0 1.368-1.368 3.684 3.684 0 0 0 .504-1.89c0-.648-.156-1.248-.468-1.8a3.803 3.803 0 0 0-1.26-1.341 3.669 3.669 0 0 0-1.746-.585z" opacity=".7"/>
</svg>
