<svg xmlns="http://www.w3.org/2000/svg" width="24" height="24" viewBox="0 0 24 24">
    <path fill="#FFF" fill-rule="evenodd" d="M2 0h20a2 2 0 0 1 2 2v20a2 2 0 0 1-2 2H2a2 2 0 0 1-2-2V2a2 2 0 0 1 2-2zm12.988 12.738c-.3 0-.534.012-.702.036.984.708 1.476 1.572 1.476 2.592v1.872h4.5v-1.872c0-.54-.324-1.026-.972-1.458-.552-.36-1.266-.654-2.142-.882-.792-.192-1.512-.288-2.16-.288zm-5.976 0c-.648 0-1.368.096-2.16.288-.876.228-1.59.522-2.142.882-.648.432-.972.918-.972 1.458v1.872H14.25v-1.872c0-.54-.324-1.026-.972-1.458-.54-.36-1.248-.654-2.124-.882-.78-.192-1.494-.288-2.142-.288zm0-1.476c.396 0 .765-.102 1.107-.306.342-.204.612-.477.81-.819.198-.342.297-.717.297-1.125 0-.408-.099-.783-.297-1.125a2.255 2.255 0 0 0-.81-.819 2.17 2.17 0 0 0-2.223 0c-.348.204-.624.48-.828.828a2.17 2.17 0 0 0-.306 1.116c0 .396.102.768.306 1.116.204.348.48.624.828.828.348.204.72.306 1.116.306zm5.976 0a2.17 2.17 0 0 0 1.116-.306c.348-.204.624-.48.828-.828a2.17 2.17 0 0 0 .306-1.116 2.17 2.17 0 0 0-.306-1.116 2.283 2.283 0 0 0-.828-.828 2.17 2.17 0 0 0-1.116-.306 2.17 2.17 0 0 0-1.116.306c-.348.204-.624.48-.828.828a2.17 2.17 0 0 0-.306 1.116c0 .396.102.768.306 1.116.204.348.48.624.828.828.348.204.72.306 1.116.306z" opacity=".7"/>
</svg>
