<svg xmlns="http://www.w3.org/2000/svg" width="24" height="24" viewBox="0 0 24 24">
    <path fill="#FFF" fill-rule="evenodd" d="M2 0h20a2 2 0 0 1 2 2v20a2 2 0 0 1-2 2H2a2 2 0 0 1-2-2V2a2 2 0 0 1 2-2zm2.002 5a.968.968 0 0 0-.712.29.968.968 0 0 0-.29.712V17.99c0 .281.097.519.29.712.193.194.43.29.712.29h15.996a.968.968 0 0 0 .712-.29.968.968 0 0 0 .29-.712V6.002a.968.968 0 0 0-.29-.712.968.968 0 0 0-.712-.29H4.002zm4.623 7.383c.293 0 .595.02.905.061.31.041.642.103.993.185.387.105.736.223 1.046.351.31.13.59.276.835.44.282.187.495.387.642.598.146.21.22.433.22.668v1.16H4.002v-1.16c0-.235.07-.457.21-.668.142-.211.358-.41.651-.598a4.2 4.2 0 0 1 .826-.44 9.258 9.258 0 0 1 1.055-.351c.34-.082.668-.144.985-.185.316-.04.615-.061.896-.061zm-.088-.563c-.223 0-.44-.029-.65-.088a2.565 2.565 0 0 1-.616-.263 2.618 2.618 0 0 1-.527-.405 2.618 2.618 0 0 1-.404-.527 2.068 2.068 0 0 1-.255-.598 2.745 2.745 0 0 1-.08-.668c0-.234.027-.457.08-.667a2.32 2.32 0 0 1 .255-.616c.117-.199.252-.378.404-.536a2.565 2.565 0 0 1 1.143-.677c.21-.058.427-.087.65-.087a2.485 2.485 0 0 1 1.283.351c.188.117.36.255.519.413.158.158.29.337.395.536a2.485 2.485 0 0 1 .352 1.283c0 .235-.03.458-.088.668-.059.211-.146.41-.264.598-.105.2-.237.375-.395.527a3.16 3.16 0 0 1-.519.405 2.485 2.485 0 0 1-1.283.352zm6.469-5.818h3.99c.14 0 .26.047.36.14.1.094.15.212.15.352v11.004c0 .14-.05.258-.15.352-.1.093-.22.14-.36.14h-3.99a.507.507 0 0 1-.36-.14.463.463 0 0 1-.15-.352V6.494c0-.14.05-.258.15-.351.1-.094.22-.141.36-.141z" opacity=".7"/>
</svg>
