<svg xmlns="http://www.w3.org/2000/svg" width="24" height="24" viewBox="0 0 24 24">
    <path fill="#FFF" fill-rule="evenodd" d="M2 0h20a2 2 0 0 1 2 2v20a2 2 0 0 1-2 2H2a2 2 0 0 1-2-2V2a2 2 0 0 1 2-2zm10.718 2.69a1.449 1.449 0 0 0-1.436 0L4.218 6.73A1.42 1.42 0 0 0 3.5 7.961v8.076c0 .509.274.979.718 1.233l7.064 4.038c.444.255.992.255 1.436 0l7.064-4.038a1.42 1.42 0 0 0 .718-1.233V7.962a1.42 1.42 0 0 0-.718-1.233l-7.064-4.038zm-2.034 2.615h2.632c1.997 0 3.615 1.603 3.615 3.58v6.19c0 1.798-1.471 3.255-3.286 3.255h-3.29c-1.815 0-3.286-1.457-3.286-3.255v-6.19c0-1.977 1.618-3.58 3.615-3.58zm-.329 1.622c-.91 0-1.648.731-1.648 1.633a1.64 1.64 0 0 0 1.648 1.632h3.29c.91 0 1.648-.73 1.648-1.632a1.64 1.64 0 0 0-1.648-1.633h-3.29zm3.948 8.145H9.697c-.348 0-.685-.077-.99-.221v.224a1.64 1.64 0 0 0 1.648 1.633h3.29c.91 0 1.648-.731 1.648-1.633v-.224a2.312 2.312 0 0 1-.99.221zm0-3.258H9.697a1.98 1.98 0 0 1-.99-.264v.92c0 .54.443.98.99.98h4.606c.547 0 .99-.44.99-.98v-.92a1.98 1.98 0 0 1-.99.264z" opacity=".1"/>
</svg>
