<svg xmlns="http://www.w3.org/2000/svg" xmlns:xlink="http://www.w3.org/1999/xlink" width="72" height="82" viewBox="0 0 72 82">
    <defs>
        <path id="b" d="M37.5.67l30 17.32a5 5 0 0 1 2.5 4.33v34.642a5 5 0 0 1-2.5 4.33l-30 17.32a5 5 0 0 1-5 0l-30-17.32a5 5 0 0 1-2.5-4.33V22.32a5 5 0 0 1 2.5-4.33L32.5.67a5 5 0 0 1 5 0z"/>
        <filter id="a" width="105.7%" height="105%" x="-2.9%" y="-1.3%" filterUnits="objectBoundingBox">
            <feOffset dy="1" in="SourceAlpha" result="shadowOffsetOuter1"/>
            <feGaussianBlur in="shadowOffsetOuter1" result="shadowBlurOuter1" stdDeviation=".5"/>
            <feColorMatrix in="shadowBlurOuter1" values="0 0 0 0 0 0 0 0 0 0 0 0 0 0 0 0 0 0 0.5 0"/>
        </filter>
    </defs>
    <g fill="none" fill-rule="evenodd">
        <g transform="translate(1)">
            <use fill="#000" filter="url(#a)" xlink:href="#b"/>
            <use fill="#5A7BA3" xlink:href="#b"/>
        </g>
        <path fill="#39506C" d="M38.5 6.93l24.578 14.19a5 5 0 0 1 2.5 4.33v28.381a5 5 0 0 1-2.5 4.33L38.5 72.351a5 5 0 0 1-5 0L8.922 58.161a5 5 0 0 1-2.5-4.33v-28.38a5 5 0 0 1 2.5-4.33L33.5 6.93a5 5 0 0 1 5 0z"/>
        <path fill="#5A7BA3" d="M32.55 41.027l-8.567 1.82a3.5 3.5 0 1 1-.58-2.304l8.607-1.83a3.98 3.98 0 0 1 .798-2.124l-6.163-7.345a5 5 0 1 1 1.666-1.71l6.433 7.667c.395-.13.817-.201 1.256-.201.6 0 1.168.132 1.678.368l4.449-3.867a6 6 0 1 1 1.752 1.624l-4.429 3.85c.35.594.55 1.286.55 2.025 0 .672-.166 1.306-.459 1.862l7.864 7.863a5 5 0 1 1-1.68 1.68l-7.863-7.864a3.976 3.976 0 0 1-1.576.449l-2.21 6.068a5 5 0 1 1-2.172-.977l2.054-5.64a4.02 4.02 0 0 1-1.407-1.414z"/>
    </g>
</svg>
