<svg xmlns="http://www.w3.org/2000/svg" xmlns:xlink="http://www.w3.org/1999/xlink" width="72" height="82" viewBox="0 0 72 82">
    <defs>
        <path id="b" d="M37.5.67l30 17.32a5 5 0 0 1 2.5 4.33v34.642a5 5 0 0 1-2.5 4.33l-30 17.32a5 5 0 0 1-5 0l-30-17.32a5 5 0 0 1-2.5-4.33V22.32a5 5 0 0 1 2.5-4.33L32.5.67a5 5 0 0 1 5 0z"/>
        <filter id="a" width="105.7%" height="105%" x="-2.9%" y="-1.3%" filterUnits="objectBoundingBox">
            <feOffset dy="1" in="SourceAlpha" result="shadowOffsetOuter1"/>
            <feGaussianBlur in="shadowOffsetOuter1" result="shadowBlurOuter1" stdDeviation=".5"/>
            <feColorMatrix in="shadowBlurOuter1" values="0 0 0 0 0 0 0 0 0 0 0 0 0 0 0 0 0 0 0.5 0"/>
        </filter>
    </defs>
    <g fill="none" fill-rule="evenodd">
        <g transform="translate(1)">
            <use fill="#000" filter="url(#a)" xlink:href="#b"/>
            <use fill="#5A7BA3" xlink:href="#b"/>
        </g>
        <path fill="#39506C" d="M38.5 6.93l24.578 14.19a5 5 0 0 1 2.5 4.33v28.381a5 5 0 0 1-2.5 4.33L38.5 72.351a5 5 0 0 1-5 0L8.922 58.161a5 5 0 0 1-2.5-4.33v-28.38a5 5 0 0 1 2.5-4.33L33.5 6.93a5 5 0 0 1 5 0z"/>
        <path d="M15 19h42v42H15z"/>
        <path fill="#5A7BA3" d="M36 59.25c-10.631 0-19.25-8.619-19.25-19.25S25.369 20.75 36 20.75 55.25 29.369 55.25 40 46.631 59.25 36 59.25zm0-2.502c9.25 0 16.748-7.499 16.748-16.748 0-9.25-7.499-16.747-16.748-16.747-9.25 0-16.747 7.498-16.747 16.747 0 9.25 7.498 16.748 16.747 16.748zM27.992 41.54h4.851c.893 0 1.617.724 1.617 1.617v4.851c0 .893-.724 1.617-1.617 1.617h-4.851a1.617 1.617 0 0 1-1.617-1.617v-4.851c0-.893.724-1.617 1.617-1.617zm0-11.165h4.851c.893 0 1.617.724 1.617 1.617v4.851c0 .893-.724 1.617-1.617 1.617h-4.851a1.617 1.617 0 0 1-1.617-1.617v-4.851c0-.893.724-1.617 1.617-1.617zm11.165 0h4.851c.893 0 1.617.724 1.617 1.617v4.851c0 .893-.724 1.617-1.617 1.617h-4.851a1.617 1.617 0 0 1-1.617-1.617v-4.851c0-.893.724-1.617 1.617-1.617zm0 11.165h4.851c.893 0 1.617.724 1.617 1.617v4.851c0 .893-.724 1.617-1.617 1.617h-4.851a1.617 1.617 0 0 1-1.617-1.617v-4.851c0-.893.724-1.617 1.617-1.617z"/>
    </g>
</svg>
