<svg xmlns="http://www.w3.org/2000/svg" width="96" height="111" viewBox="0 0 96 111">
    <g fill="#061B2F" fill-rule="evenodd">
        <path d="M48 .485l47.766 27.578V83.22L48 110.797.234 83.219V28.063L48 .485zm1.99 9.632a4 4 0 0 0-3.964.028L9.492 31.344a4 4 0 0 0-1.992 3.46v41.44a4 4 0 0 0 1.93 3.423l36.554 22.114a4 4 0 0 0 4.06.048l36.945-21.176A4 4 0 0 0 89 77.183v-42.84a4 4 0 0 0-2.043-3.49L49.99 10.118z" opacity=".5"/>
        <path fill-opacity=".3" stroke="#9F9A46" stroke-width="2" d="M49.501 10.989a3 3 0 0 0-2.973.021L9.994 32.21A3 3 0 0 0 8.5 34.804v41.44a3 3 0 0 0 1.447 2.568l36.555 22.113a3 3 0 0 0 3.045.036l36.945-21.176A3 3 0 0 0 88 77.182v-42.84a3 3 0 0 0-1.532-2.616L49.5 10.99z"/>
    </g>
</svg>
