<svg xmlns="http://www.w3.org/2000/svg" width="191" height="111" viewBox="0 0 191 111">
    <g fill="#061B2F" fill-rule="evenodd">
        <path d="M95.5 83.373L48 110.797.234 83.219V28.063L48 .485 95.5 27.91 143 .485l47.766 27.578V83.22L143 110.797 95.5 83.373zm49.452-73.278a4 4 0 0 0-3.906-.005L97.449 34.413a4 4 0 0 1-3.898 0L49.954 10.09a4 4 0 0 0-3.906.005L9.043 30.854A4 4 0 0 0 7 34.343v42.84a4 4 0 0 0 2.01 3.47L46 101.854a4 4 0 0 0 3.994-.008L93.496 76.66a4 4 0 0 1 4.008 0l43.502 25.186a4 4 0 0 0 3.993.008l36.99-21.201a4 4 0 0 0 2.011-3.47v-42.84a4 4 0 0 0-2.043-3.49l-37.005-20.758z" opacity=".5"/>
        <path fill-opacity=".3" stroke="#9F9A46" stroke-width="2" d="M144.462 10.967a3 3 0 0 0-2.929-.003L97.936 35.286a5 5 0 0 1-4.872 0L49.467 10.964a3 3 0 0 0-2.93.003L9.533 31.727A3 3 0 0 0 8 34.342v42.84a3 3 0 0 0 1.508 2.602l36.99 21.202a3 3 0 0 0 2.995-.007l43.502-25.185a5 5 0 0 1 5.01 0l43.502 25.185a3 3 0 0 0 2.995.007l36.99-21.202A3 3 0 0 0 183 77.182v-42.84a3 3 0 0 0-1.532-2.616l-37.006-20.759z"/>
    </g>
</svg>
