<svg xmlns="http://www.w3.org/2000/svg" width="22" height="22" viewBox="0 0 22 22">
    <g fill="none" fill-rule="evenodd">
        <path d="M-1-1h24v24H-1z" opacity=".01"/>
        <path fill="#699362" d="M20.811 9.63a7.18 7.18 0 0 0-2.707-.526 7.188 7.188 0 0 0-5.725 2.833 8.31 8.31 0 0 0-1.487-.145c-.728 0-1.54.12-2.436.36-.992.272-1.8.624-2.424 1.056-.736.512-1.112 1.072-1.128 1.68a7.166 7.166 0 0 0 2.568 2.328 6.935 6.935 0 0 0 3.664.908c.255.98.712 1.878 1.322 2.649-.506.077-1.024.115-1.554.115A9.819 9.819 0 0 1 5.84 19.52a9.642 9.642 0 0 1-3.552-3.576 9.775 9.775 0 0 1-1.368-5.04c0-1.808.456-3.488 1.368-5.04a9.826 9.826 0 0 1 3.576-3.576A9.775 9.775 0 0 1 10.904.92c1.824 0 3.512.456 5.064 1.368A9.463 9.463 0 0 1 19.52 5.84a9.756 9.756 0 0 1 1.291 3.79zm-9.907-5.71c-.528 0-1.024.136-1.488.408-.464.272-.832.64-1.104 1.104-.272.464-.408.96-.408 1.488s.136 1.024.408 1.488c.272.464.64.832 1.104 1.104.464.272.96.408 1.488.408s1.024-.136 1.488-.408c.464-.272.832-.64 1.104-1.104.272-.464.408-.96.408-1.488s-.136-1.024-.408-1.488a3.043 3.043 0 0 0-1.104-1.104 2.894 2.894 0 0 0-1.488-.408zM20.674 15c.279 0 .517.103.715.309.197.205.296.456.296.752v4.097c0 .28-.099.518-.296.715a.975.975 0 0 1-.716.296h-5.157a.975.975 0 0 1-.716-.296.975.975 0 0 1-.296-.715V16.06c0-.296.099-.547.296-.752a.956.956 0 0 1 .716-.309v-1.554c0-.461.115-.885.345-1.271.23-.387.543-.695.938-.926.395-.23.822-.345 1.283-.345.46 0 .888.115 1.283.345.395.23.712.54.95.926.239.386.358.81.358 1.27V15zm-1.062 0v-1.554c0-.428-.148-.79-.444-1.086a1.477 1.477 0 0 0-1.086-.444c-.428 0-.794.148-1.098.444a1.457 1.457 0 0 0-.457 1.086V15h3.085z"/>
    </g>
</svg>
