<svg xmlns="http://www.w3.org/2000/svg" width="23" height="20" viewBox="0 0 23 20">
    <g fill="none" fill-rule="evenodd">
        <path d="M-1-2h24v24H-1z" opacity=".01"/>
        <path fill="#699362" d="M20.412 8.468A6.869 6.869 0 0 0 17.06 7.6a6.896 6.896 0 0 0-5.911 3.339 7.295 7.295 0 0 0-.617-.027c-.728 0-1.54.12-2.436.36-.992.272-1.8.624-2.424 1.056-.736.512-1.112 1.072-1.128 1.68a7.166 7.166 0 0 0 2.568 2.328 6.935 6.935 0 0 0 3.616.91 6.92 6.92 0 0 0 1.908 2.55c-.676.141-1.373.212-2.092.212A9.819 9.819 0 0 1 5.48 18.64a9.642 9.642 0 0 1-3.552-3.576 9.775 9.775 0 0 1-1.368-5.04c0-1.808.456-3.488 1.368-5.04a9.826 9.826 0 0 1 3.576-3.576A9.775 9.775 0 0 1 10.544.04c1.824 0 3.512.456 5.064 1.368A9.463 9.463 0 0 1 19.16 4.96a9.761 9.761 0 0 1 1.252 3.508zM10.544 3.04c-.528 0-1.024.136-1.488.408-.464.272-.832.64-1.104 1.104-.272.464-.408.96-.408 1.488s.136 1.024.408 1.488c.272.464.64.832 1.104 1.104.464.272.96.408 1.488.408s1.024-.136 1.488-.408c.464-.272.832-.64 1.104-1.104.272-.464.408-.96.408-1.488s-.136-1.024-.408-1.488a3.043 3.043 0 0 0-1.104-1.104 2.894 2.894 0 0 0-1.488-.408zm10.281 11.994l1.279.97-1.06 1.809-1.278-.518-.183-.074-.16.115c-.244.173-.53.331-.86.473l-.185.079-.245 1.596h-2.044l-.21-1.362-.03-.188-.172-.082a7.502 7.502 0 0 1-.882-.523l-.158-.105-1.475.594-1.04-1.815 1.1-.833.18-.136-.044-.221a2.787 2.787 0 0 1-.031-.488c0-.222.01-.38.029-.462l.05-.225-1.283-.973 1.06-1.81 1.278.518.19.077.163-.125c.188-.144.473-.3.853-.467l.182-.08.245-1.594h2.044l.21 1.362.031.195.18.079c.29.127.575.296.857.507l.162.122 1.487-.599 1.04 1.815-1.1.833-.184.14.05.225c.018.082.03.243.03.471 0 .218-.012.38-.032.479l-.044.22zm-3.712-2.65c-.525 0-.989.196-1.371.578a1.887 1.887 0 0 0-.58 1.372c0 .526.197.99.58 1.372.382.382.846.579 1.371.579.526 0 .99-.197 1.372-.58.382-.382.579-.845.579-1.371s-.197-.99-.579-1.372a1.887 1.887 0 0 0-1.372-.578z"/>
    </g>
</svg>
