<svg xmlns="http://www.w3.org/2000/svg" width="16" height="16" viewBox="0 0 16 16">
    <path fill="#BBC2C8" fill-rule="evenodd" d="M6.739 8.813l-3.743.795a1.5 1.5 0 1 1-.265-.966l3.778-.803c.027-.262.123-.505.269-.71L3.95 3.76a2 2 0 1 1 .734-.681L7.6 6.554a1.502 1.502 0 0 1 .952.051l1.909-1.659a2.5 2.5 0 1 1 .734.687L9.311 7.27a1.493 1.493 0 0 1 .043 1.377l3.63 3.63a2 2 0 1 1-.707.707l-3.63-3.63a1.49 1.49 0 0 1-.457.134L7.145 12.36a2 2 0 1 1-.937-.35l.997-2.738a1.508 1.508 0 0 1-.466-.46z"/>
</svg>
