<svg xmlns="http://www.w3.org/2000/svg" width="24" height="24" viewBox="0 0 24 24">
    <path fill="#FFF" fill-rule="evenodd" d="M2 0h22v24H2a2 2 0 0 1-2-2V2a2 2 0 0 1 2-2zm2.2 3.5a.7.7 0 0 0-.7.7v5.6a.7.7 0 0 0 .7.7h5.6a.7.7 0 0 0 .7-.7V4.2a.7.7 0 0 0-.7-.7H4.2zm0 10a.7.7 0 0 0-.7.7v5.6a.7.7 0 0 0 .7.7h5.6a.7.7 0 0 0 .7-.7v-5.6a.7.7 0 0 0-.7-.7H4.2zm10-10a.7.7 0 0 0-.7.7v5.6a.7.7 0 0 0 .7.7h5.6a.7.7 0 0 0 .7-.7V4.2a.7.7 0 0 0-.7-.7h-5.6zm0 10a.7.7 0 0 0-.7.7v5.6a.7.7 0 0 0 .7.7h5.6a.7.7 0 0 0 .7-.7v-5.6a.7.7 0 0 0-.7-.7h-5.6z" opacity=".3"/>
</svg>
