<svg xmlns="http://www.w3.org/2000/svg" width="24" height="24" viewBox="0 0 24 24">
    <path fill="#FFF" fill-rule="evenodd" d="M0 0h22a2 2 0 0 1 2 2v20a2 2 0 0 1-2 2H0V0zm8.7 4.5a.7.7 0 0 0-.7.7v1.6a.7.7 0 0 0 .7.7h11.6a.7.7 0 0 0 .7-.7V5.2a.7.7 0 0 0-.7-.7H8.7zm0 6a.7.7 0 0 0-.7.7v1.6a.7.7 0 0 0 .7.7h11.6a.7.7 0 0 0 .7-.7v-1.6a.7.7 0 0 0-.7-.7H8.7zm0 6a.7.7 0 0 0-.7.7v1.6a.7.7 0 0 0 .7.7h11.6a.7.7 0 0 0 .7-.7v-1.6a.7.7 0 0 0-.7-.7H8.7zm-5-12a.7.7 0 0 0-.7.7v1.6a.7.7 0 0 0 .7.7h1.6a.7.7 0 0 0 .7-.7V5.2a.7.7 0 0 0-.7-.7H3.7zm0 6a.7.7 0 0 0-.7.7v1.6a.7.7 0 0 0 .7.7h1.6a.7.7 0 0 0 .7-.7v-1.6a.7.7 0 0 0-.7-.7H3.7zm0 6a.7.7 0 0 0-.7.7v1.6a.7.7 0 0 0 .7.7h1.6a.7.7 0 0 0 .7-.7v-1.6a.7.7 0 0 0-.7-.7H3.7z" opacity=".3"/>
</svg>
