<svg xmlns="http://www.w3.org/2000/svg" xmlns:xlink="http://www.w3.org/1999/xlink" width="72" height="82" viewBox="0 0 72 82">
    <defs>
        <path id="b" d="M37.5.67l30 17.32a5 5 0 0 1 2.5 4.33v34.642a5 5 0 0 1-2.5 4.33l-30 17.32a5 5 0 0 1-5 0l-30-17.32a5 5 0 0 1-2.5-4.33V22.32a5 5 0 0 1 2.5-4.33L32.5.67a5 5 0 0 1 5 0z"/>
        <filter id="a" width="105.7%" height="105%" x="-2.9%" y="-1.3%" filterUnits="objectBoundingBox">
            <feOffset dy="1" in="SourceAlpha" result="shadowOffsetOuter1"/>
            <feGaussianBlur in="shadowOffsetOuter1" result="shadowBlurOuter1" stdDeviation=".5"/>
            <feColorMatrix in="shadowBlurOuter1" values="0 0 0 0 0 0 0 0 0 0 0 0 0 0 0 0 0 0 0.5 0"/>
        </filter>
    </defs>
    <g fill="none" fill-rule="evenodd">
        <g transform="translate(1)">
            <use fill="#000" filter="url(#a)" xlink:href="#b"/>
            <use fill="#5A7BA3" xlink:href="#b"/>
        </g>
        <path fill="#395572" d="M38.5 6.93l24.578 14.19a5 5 0 0 1 2.5 4.33v28.381a5 5 0 0 1-2.5 4.33L38.5 72.351a5 5 0 0 1-5 0L8.922 58.161a5 5 0 0 1-2.5-4.33v-28.38a5 5 0 0 1 2.5-4.33L33.5 6.93a5 5 0 0 1 5 0z"/>
        <g transform="translate(22 20)">
            <path fill="#5A7BA3" d="M10 0h8c5.523 0 10 4.477 10 10v19a9 9 0 0 1-9 9H9a9 9 0 0 1-9-9V10C0 4.477 4.477 0 10 0z"/>
            <rect width="22" height="12" x="3" y="3" fill="#395572" rx="6"/>
            <path fill="#395572" d="M25 26.472V29a6 6 0 0 1-6 6H9a6 6 0 0 1-6-6v-2.528A5.978 5.978 0 0 0 7 28h14a5.978 5.978 0 0 0 4-1.528zM24.904 16.124c.063.282.096.575.096.876v4a4 4 0 0 1-4 4H7a4 4 0 0 1-4-4v-4c0-.3.033-.594.096-.876A4.99 4.99 0 0 0 7 18h14a4.99 4.99 0 0 0 3.904-1.876z"/>
        </g>
    </g>
</svg>
